<svg xmlns="http://www.w3.org/2000/svg" viewBox="0 0 90.5 92.5"><defs><style>.cls-1{fill:#fff;}</style></defs><title>Asset 13</title><g id="Layer_2" data-name="Layer 2"><g id="Layer_1-2" data-name="Layer 1"><path class="cls-1" d="M39.79,92.5H1.25A1.25,1.25,0,0,1,0,91.26V18.86H2.49V90h37.3Z"/><path class="cls-1" d="M72.06,34.9H69.57V2.49H18.72V0H70.81a1.25,1.25,0,0,1,1.25,1.25Z"/><path class="cls-1" d="M75.48,54.8l-.89-.88-1.17-.42c1.66-4.61,2-8,.88-9.92A4.67,4.67,0,0,0,71,41.38a1.21,1.21,0,0,1-.75-.54c-.68-1-3.76-1.59-5.62-1.63-4.05,0-6.9,1.12-8.43,3.31-2.9,4.14-.51,10.89-.49,11l-2.34.85c-.12-.33-2.85-8,.79-13.24,2-2.9,5.56-4.37,10.49-4.37,1,0,5.48.23,7.36,2.35a6.92,6.92,0,0,1,4.46,3.32c1.44,2.66,1.21,6.56-.72,12A1.16,1.16,0,0,1,75.48,54.8Z"/><path class="cls-1" d="M64.52,70.41V67.92a7.51,7.51,0,0,0,4.47-2l1.62,1.9A10.12,10.12,0,0,1,64.52,70.41Z"/><path class="cls-1" d="M58.44,67.77a13.67,13.67,0,0,1-2.74-3.11,7,7,0,0,1-1.11-2.92l-.31-2.19a5.52,5.52,0,0,1-1.81-4.46,2.43,2.43,0,0,1,1.76-2.39,2.69,2.69,0,0,1,.7-.09h0a6.36,6.36,0,0,0,.36-1.53c0-.21.08-.43.12-.67a3.17,3.17,0,0,1,2-2.07,9.62,9.62,0,0,1,8.47.32c.56.31,2,1.16,3.24-.92a1.75,1.75,0,0,1,2.73-.39,8.52,8.52,0,0,1,2.69,5.29,2.28,2.28,0,0,1,.45.11,2.44,2.44,0,0,1,1.54,2.34,5.46,5.46,0,0,1-1.81,4.46l-.31,2.19a6.9,6.9,0,0,1-1.11,2.92,13.83,13.83,0,0,1-2.73,3.11L69,65.87a10.81,10.81,0,0,0,2.23-2.52,4.43,4.43,0,0,0,.76-2L72.32,59A1.94,1.94,0,0,1,73,57.76a3,3,0,0,0,1.06-2.49c0-.06,0-.11,0-.15l-.06,0a1.43,1.43,0,0,1-1.92-1.42v-.06a5.25,5.25,0,0,0-1.32-3.88,4.41,4.41,0,0,1-6.09,1,6.93,6.93,0,0,0-6.83.18c0,.18-.07.36-.09.52-.25,1.39-.42,2.4-1.4,3.28a1.46,1.46,0,0,1-1.25.33l-.13,0s0,.1,0,.17A3,3,0,0,0,56,57.76,2,2,0,0,1,56.73,59l.33,2.35a4.54,4.54,0,0,0,.76,2,11.07,11.07,0,0,0,2.23,2.52Zm-4-8.09h0Zm20.18,0h0Zm-20.35-.3h0Zm3.61-8.52Zm12.3-1.7h0Z"/><path class="cls-1" d="M64.52,70.41a10.09,10.09,0,0,1-6.08-2.64l1.61-1.9a7.51,7.51,0,0,0,4.47,2Z"/><path class="cls-1" d="M89.25,92.5H39.79a1.23,1.23,0,0,1-.95-.44,1.21,1.21,0,0,1-.28-1l1.55-9.62v0A8.53,8.53,0,0,1,45.44,75l9.25-3.5.06,0c.36-.12.66-.24.93-.35l.19-.09.28-.14a3.39,3.39,0,0,0,1.24-1.06h0a8.73,8.73,0,0,0,.61-3.1l2.49.13a10.91,10.91,0,0,1-.73,3.74l0,.16a1.15,1.15,0,0,1-.12.25,5.6,5.6,0,0,1-2.25,2.07c-.13.07-.27.15-.41.21l-.26.12c-.32.14-.7.28-1.13.43l-9.22,3.48a6.06,6.06,0,0,0-3.75,4.5L41.25,90H87.79l-1.31-8.16a6.07,6.07,0,0,0-3.76-4.5L73.5,73.86a9.54,9.54,0,0,1-1.14-.43l-.22-.09,0,0-.39-.21a5.71,5.71,0,0,1-2.25-2.06c0-.09-.08-.17-.11-.26l0-.16a10.68,10.68,0,0,1-.73-3.74L71,66.76a8.64,8.64,0,0,0,.61,3.1h0a3.56,3.56,0,0,0,1.24,1.06l.26.13.2.09c.28.12.57.23,1,.36l0,0L83.6,75a8.54,8.54,0,0,1,5.33,6.38v0l1.55,9.62a1.21,1.21,0,0,1-.28,1A1.23,1.23,0,0,1,89.25,92.5Z"/><path class="cls-1" d="M64.52,77.18c-3.82,0-7.29-1.78-8.86-4.55l2.17-1.22c1.13,2,3.76,3.28,6.69,3.28a8.93,8.93,0,0,0,4.61-1.22,5.86,5.86,0,0,0,2.08-2.06l2.17,1.22a8.33,8.33,0,0,1-3,3A11.37,11.37,0,0,1,64.52,77.18Z"/><path class="cls-1" d="M16.39,20.11H1.25A1.25,1.25,0,0,1,.36,18L17.84.37A1.25,1.25,0,0,1,19.2.09,1.27,1.27,0,0,1,20,1.25V16.51A3.59,3.59,0,0,1,16.39,20.11ZM4.23,17.62H16.39a1.1,1.1,0,0,0,1.09-1.11V4.27Z"/><rect class="cls-1" x="12.02" y="34.47" width="31.63" height="2.49"/><rect class="cls-1" x="12.02" y="43.95" width="31.63" height="2.49"/><rect class="cls-1" x="12.02" y="53.42" width="31.63" height="2.49"/><rect class="cls-1" x="12.02" y="62.89" width="17.07" height="2.49"/><path class="cls-1" d="M59.39,23.48h-29a1.25,1.25,0,0,1-1.25-1.25V10.55A1.25,1.25,0,0,1,30.38,9.3h29a1.25,1.25,0,0,1,1.25,1.25V22.23A1.25,1.25,0,0,1,59.39,23.48ZM31.62,21H58.15v-9.2H31.62Z"/></g></g></svg>