<svg xmlns="http://www.w3.org/2000/svg" viewBox="0 0 97.37 93.41"><defs><style>.cls-1{fill:#fff;}</style></defs><title>Asset 11</title><g id="Layer_2" data-name="Layer 2"><g id="Layer_1-2" data-name="Layer 1"><polygon class="cls-1" points="96.13 72.16 96.13 82.42 40.36 82.42 1.25 82.42 1.25 72.16 96.13 72.16"/><path class="cls-1" d="M96.13,83.66H1.24A1.25,1.25,0,0,1,0,82.41V11.53a1.25,1.25,0,0,1,1.24-1.25H12.09v2.49H2.49v68.4H94.88V12.77h-9.6V10.28H96.13a1.25,1.25,0,0,1,1.24,1.25V82.41A1.25,1.25,0,0,1,96.13,83.66Z"/><rect class="cls-1" x="28.04" y="90.92" width="42" height="2.49"/><rect class="cls-1" x="39.11" y="82.41" width="2.49" height="9.75"/><rect class="cls-1" x="56.47" y="85.71" width="2.49" height="6.46"/><path class="cls-1" d="M45.53,51.73H27.83a1.25,1.25,0,0,1-1.25-1.25v-15a1.25,1.25,0,0,1,1.25-1.24H40v2.49H29.07V49.24H44.28V34.19h2.49V50.48A1.25,1.25,0,0,1,45.53,51.73Z"/><path class="cls-1" d="M69.54,30.32H57.28V27.83h11V15.27H53.09V30.32H50.6V14a1.24,1.24,0,0,1,1.24-1.24h17.7A1.24,1.24,0,0,1,70.78,14V29.07A1.24,1.24,0,0,1,69.54,30.32Z"/><path class="cls-1" d="M32.14,29.45H29.65V17.54a1.25,1.25,0,0,1,1.25-1.25H46.37v2.49H32.14Z"/><path class="cls-1" d="M30.9,30.79h0a1.22,1.22,0,0,1-.89-.37L25.82,26.1l1.78-1.73,3.3,3.39,3.29-3.39L36,26.1l-4.19,4.32A1.22,1.22,0,0,1,30.9,30.79Z"/><path class="cls-1" d="M66.47,48.18H51V45.69H65.22V35h2.49V46.94A1.24,1.24,0,0,1,66.47,48.18Z"/><path class="cls-1" d="M69.76,40.11l-3.29-3.39-3.3,3.39-1.78-1.73,4.19-4.32a1.23,1.23,0,0,1,1.78,0l4.19,4.32Z"/><rect class="cls-1" x="1.24" y="70.91" width="94.88" height="2.49"/><path class="cls-1" d="M82.06,64.51H79.57v-62H17.79V62H75.88v2.49H16.55a1.25,1.25,0,0,1-1.25-1.25v-62A1.25,1.25,0,0,1,16.55,0H80.82a1.24,1.24,0,0,1,1.24,1.25Z"/></g></g></svg>