<svg xmlns="http://www.w3.org/2000/svg" viewBox="0 0 97.07 74.23"><defs><style>.cls-1{fill:#fff;}</style></defs><title>Asset 12</title><g id="Layer_2" data-name="Layer 2"><g id="Layer_1-2" data-name="Layer 1"><polygon class="cls-1" points="95.83 1.25 95.83 16.36 95.38 16.36 1.69 16.36 1.25 16.36 1.25 1.25 95.83 1.25"/><path class="cls-1" d="M9.88,46.41V43.92A3.12,3.12,0,0,0,12,43.1a3.35,3.35,0,0,0,.67-2.55c-.06-.89-.15-1.7-.24-2.48-.27-2.41-.51-4.49,1-6a5.53,5.53,0,0,1,4.46-1.68h.26l0,2.49h-.3a3.11,3.11,0,0,0-2.68.95c-.63.63-.53,1.79-.29,4,.09.77.19,1.65.25,2.61a5.65,5.65,0,0,1-1.33,4.4A5.57,5.57,0,0,1,9.88,46.41Z"/><path class="cls-1" d="M17.64,59.94a5.45,5.45,0,0,1-4.23-1.68c-1.51-1.52-1.27-3.59-1-6,.09-.78.18-1.59.24-2.49A3.35,3.35,0,0,0,12,47.22a3.13,3.13,0,0,0-2.11-.81h0V43.92h0a5.5,5.5,0,0,1,3.92,1.6,5.62,5.62,0,0,1,1.34,4.41c-.06,1-.16,1.83-.25,2.61-.24,2.17-.34,3.33.29,4a3.17,3.17,0,0,0,2.68,1h.3l0,2.49h-.49Z"/><path class="cls-1" d="M41.4,46.41a5.55,5.55,0,0,1-3.91-1.61,5.69,5.69,0,0,1-1.34-4.4c.06-1,.16-1.84.25-2.61.25-2.17.34-3.33-.29-4a3.09,3.09,0,0,0-2.68-.95h-.29V30.39h.27a5.55,5.55,0,0,1,4.46,1.68c1.5,1.51,1.27,3.59,1,6-.09.78-.18,1.59-.23,2.48a3.31,3.31,0,0,0,.67,2.55,3.09,3.09,0,0,0,2.11.82Z"/><path class="cls-1" d="M33.65,59.94h-.5V57.45h.29a3.16,3.16,0,0,0,2.68-1c.63-.63.54-1.79.29-4-.09-.78-.19-1.65-.25-2.62a5.69,5.69,0,0,1,1.34-4.4,5.52,5.52,0,0,1,3.92-1.6h0v2.49h0a3.1,3.1,0,0,0-2.1.81,3.31,3.31,0,0,0-.67,2.55c0,.9.14,1.71.23,2.49.28,2.41.51,4.48-1,6A5.46,5.46,0,0,1,33.65,59.94Z"/><rect class="cls-1" x="10.85" y="8.12" width="3.22" height="2.49"/><rect class="cls-1" x="16.97" y="8.12" width="3.22" height="2.49"/><rect class="cls-1" x="24.93" y="8.12" width="3.22" height="2.49"/><rect class="cls-1" x="18.82" y="51.79" width="3.08" height="2.49"/><rect class="cls-1" x="24.18" y="51.79" width="3.08" height="2.49"/><rect class="cls-1" x="29.54" y="51.79" width="3.08" height="2.49"/><path class="cls-1" d="M87.19,74.23H1.24A1.25,1.25,0,0,1,0,73V1.24A1.25,1.25,0,0,1,1.24,0H95.83a1.24,1.24,0,0,1,1.24,1.24V62.32a1.24,1.24,0,0,1-.77,1.15,1.25,1.25,0,0,1-1.36-.28L83.29,51.43A1.26,1.26,0,0,1,83,50.1,14.37,14.37,0,0,0,80.1,34.77a13.78,13.78,0,0,0-13.42-3.52l9,9.08a1.64,1.64,0,0,1,.45,1.39A12.28,12.28,0,0,1,65.81,52.11a1.65,1.65,0,0,1-1.38-.46L63.1,50.3l-7.63-7.71a13.79,13.79,0,0,0,18.64,16.5,1.25,1.25,0,0,1,1.34.28L88.07,72.11a1.24,1.24,0,0,1-.88,2.12ZM2.49,71.74H84.2l-10-10A16.45,16.45,0,0,1,57.19,57.9a16.7,16.7,0,0,1-3.65-17.51,1.63,1.63,0,0,1,1.15-1,1.6,1.6,0,0,1,1.51.44l8.67,8.75,1,1a9.8,9.8,0,0,0,7.71-7.8L63.9,32a1.66,1.66,0,0,1-.45-1.43s0,0,0-.08a1.62,1.62,0,0,1,1-1.14A16.32,16.32,0,0,1,81.86,33a16.79,16.79,0,0,1,3.75,17.22l9,9V2.49H2.49ZM73.66,41.35v0Zm-8-11.12h0Z"/><rect class="cls-1" x="1.69" y="15.12" width="93.69" height="2.49"/></g></g></svg>