<svg xmlns="http://www.w3.org/2000/svg" viewBox="0 0 97.37 80.74"><defs><style>.cls-1{fill:#fff;}</style></defs><title>Asset 8</title><g id="Layer_2" data-name="Layer 2"><g id="Layer_1-2" data-name="Layer 1"><polygon class="cls-1" points="96.13 60.95 96.13 70.33 56.23 70.33 41.85 70.33 1.25 70.33 1.25 60.95 96.13 60.95"/><path class="cls-1" d="M96.13,71.58H1.24A1.25,1.25,0,0,1,0,70.33V1.25A1.25,1.25,0,0,1,1.24,0H96.13a1.25,1.25,0,0,1,1.24,1.25V70.33A1.25,1.25,0,0,1,96.13,71.58ZM2.49,69.09H94.88V2.49H2.49Z"/><rect class="cls-1" x="31.68" y="78.25" width="34.71" height="2.49"/><rect class="cls-1" x="40.61" y="70.33" width="2.49" height="8.6"/><rect class="cls-1" x="54.99" y="70.33" width="2.49" height="8.6"/><rect class="cls-1" x="1.24" y="59.7" width="94.88" height="2.49"/><path class="cls-1" d="M68.64,52.69a1.24,1.24,0,0,1-.91-.4l-7.89-8.47H46.22a3.63,3.63,0,0,1-3.62-3.64V33.65h2.48v6.53a1.14,1.14,0,0,0,1.14,1.15H60.38a1.24,1.24,0,0,1,.91.4l6.11,6.55v-5.7a1.25,1.25,0,0,1,1.24-1.25h3.23A1.14,1.14,0,0,0,73,40.18V26.73a1.15,1.15,0,0,0-1.14-1.15H53.53V23.09H71.87a3.64,3.64,0,0,1,3.63,3.64V40.18a3.64,3.64,0,0,1-3.63,3.64h-2v7.62a1.26,1.26,0,0,1-.79,1.16A1.22,1.22,0,0,1,68.64,52.69Z"/><path class="cls-1" d="M28.73,43.75a1.44,1.44,0,0,1-.46-.08,1.26,1.26,0,0,1-.79-1.16V34.89h-2a3.64,3.64,0,0,1-3.63-3.64V17.8a3.65,3.65,0,0,1,3.63-3.65H51.15a3.65,3.65,0,0,1,3.63,3.65V33.64a1.25,1.25,0,0,1-1.25,1.25h-16l-7.89,8.47A1.26,1.26,0,0,1,28.73,43.75ZM25.5,16.64a1.15,1.15,0,0,0-1.14,1.16V31.25A1.15,1.15,0,0,0,25.5,32.4h3.23A1.24,1.24,0,0,1,30,33.64v5.71l6.11-6.56A1.25,1.25,0,0,1,37,32.4h15.3V17.8a1.15,1.15,0,0,0-1.14-1.16Z"/><rect class="cls-1" x="27.82" y="25.16" width="2.92" height="2.49"/><rect class="cls-1" x="33.21" y="25.16" width="2.92" height="2.49"/><rect class="cls-1" x="38.6" y="25.16" width="2.92" height="2.49"/></g></g></svg>