<svg xmlns="http://www.w3.org/2000/svg" viewBox="0 0 97.37 85.46"><defs><style>.cls-1{fill:#fff;}</style></defs><title>Asset 10</title><g id="Layer_2" data-name="Layer 2"><g id="Layer_1-2" data-name="Layer 1"><path class="cls-1" d="M96.13,71.16H70.45V68.67H94.88V2.49H2.49V68.67H26.93v2.49H1.24A1.25,1.25,0,0,1,0,69.91V1.25A1.25,1.25,0,0,1,1.24,0H96.13a1.25,1.25,0,0,1,1.24,1.25V69.91A1.25,1.25,0,0,1,96.13,71.16Z"/><rect class="cls-1" x="70.42" y="6.45" width="3.09" height="2.49"/><rect class="cls-1" x="76.31" y="6.45" width="3.1" height="2.49"/><rect class="cls-1" x="82.2" y="6.45" width="3.1" height="2.49"/><rect class="cls-1" x="1.24" y="12.27" width="94.88" height="2.49"/><path class="cls-1" d="M48.69,85.46a1.25,1.25,0,0,1-.8-.29,36,36,0,0,0-6.75-3.8c-5.12-2.5-11.49-5.6-15.22-10.73A16.48,16.48,0,0,1,22.74,60.4V31.53A1.25,1.25,0,0,1,24,30.28c8.65,0,14.37,0,24-6.53a1.22,1.22,0,0,1,1.39,0c9.63,6.53,15.35,6.53,24,6.53a1.25,1.25,0,0,1,1.24,1.25v28.9a16.4,16.4,0,0,1-3.18,10.21l0,.07c-3.73,5.09-10.07,8.18-15.17,10.66a36.59,36.59,0,0,0-6.75,3.8A1.24,1.24,0,0,1,48.69,85.46ZM25.23,32.77V60.43a13.84,13.84,0,0,0,2.71,8.75c3.36,4.63,9.17,7.45,14.29,9.95a48.21,48.21,0,0,1,6.46,3.52,47.41,47.41,0,0,1,6.45-3.52c5.12-2.5,10.93-5.32,14.29-9.95l0-.06a13.81,13.81,0,0,0,2.66-8.67V32.77c-8,0-14.08-.32-23.45-6.49C39.31,32.45,33.19,32.76,25.23,32.77Z"/><path class="cls-1" d="M47.58,64.6a1.21,1.21,0,0,1-.85-.34L36.37,54.59a1.24,1.24,0,0,1-.07-1.75l3.79-4.17a1.23,1.23,0,0,1,.87-.4,1.26,1.26,0,0,1,.9.33l5.41,5,4.86-5.17L54,50.19l-5.72,6.07a1.25,1.25,0,0,1-1.76.06l-5.39-5L39,53.61l8.55,8L58.41,50l-4.06-3.93,1.73-1.79L61,49.1a1.24,1.24,0,0,1,0,1.75L48.48,64.21A1.22,1.22,0,0,1,47.58,64.6Z"/></g></g></svg>