<svg xmlns="http://www.w3.org/2000/svg" viewBox="0 0 97.37 72.66"><defs><style>.cls-1{fill:#fff;}</style></defs><title>Asset 9</title><g id="Layer_2" data-name="Layer 2"><g id="Layer_1-2" data-name="Layer 1"><rect class="cls-1" x="1.24" y="1.25" width="94.88" height="14.19"/><path class="cls-1" d="M96.13,72.66H1.25A1.25,1.25,0,0,1,0,71.41V1.24A1.25,1.25,0,0,1,1.25,0H96.13a1.25,1.25,0,0,1,1.24,1.24V71.41A1.25,1.25,0,0,1,96.13,72.66ZM2.49,70.17H94.88V2.49H2.49Z"/><rect class="cls-1" x="1.25" y="14.19" width="94.88" height="2.49"/><rect class="cls-1" x="10.03" y="7.35" width="3.47" height="2.49"/><rect class="cls-1" x="16.64" y="7.35" width="3.47" height="2.49"/><rect class="cls-1" x="23.24" y="7.35" width="3.47" height="2.49"/><rect class="cls-1" x="28.56" y="58.74" width="3.11" height="2.49"/><rect class="cls-1" x="34.47" y="58.74" width="3.11" height="2.49"/><rect class="cls-1" x="40.4" y="58.74" width="3.11" height="2.49"/><path class="cls-1" d="M15.33,46.09V43.6a3.35,3.35,0,0,0,2.31-.92,3.91,3.91,0,0,0,.79-3c-.06-1-.16-2-.25-2.79-.31-2.76-.54-4.93,1-6.57A5.84,5.84,0,0,1,24,28.45h.28l0,2.49h-.32A3.39,3.39,0,0,0,21,32c-.73.76-.62,2.09-.35,4.57.1.86.2,1.84.27,2.91a6.33,6.33,0,0,1-1.46,4.87A5.85,5.85,0,0,1,15.33,46.09Z"/><path class="cls-1" d="M23.7,61.23a5.66,5.66,0,0,1-4.5-1.86c-1.57-1.63-1.34-3.81-1-6.56.09-.84.19-1.79.25-2.8a3.91,3.91,0,0,0-.79-3,3.32,3.32,0,0,0-2.3-.91h-.05V43.6h.05a5.81,5.81,0,0,1,4.11,1.69,6.29,6.29,0,0,1,1.47,4.87c-.07,1.07-.17,2.05-.27,2.92-.27,2.48-.38,3.81.35,4.57a3.38,3.38,0,0,0,3,1.09h.32l0,2.49H23.7Z"/><path class="cls-1" d="M81.33,46.09a5.81,5.81,0,0,1-4.11-1.7,6.29,6.29,0,0,1-1.47-4.87c.07-1.07.17-2.05.27-2.92.27-2.48.38-3.8-.35-4.56a3.39,3.39,0,0,0-3-1.1H72.4V28.46h.29a5.82,5.82,0,0,1,4.76,1.86c1.58,1.64,1.34,3.81,1,6.56-.09.84-.19,1.79-.25,2.8a3.93,3.93,0,0,0,.79,3,3.35,3.35,0,0,0,2.31.92Z"/><path class="cls-1" d="M73,61.23h-.55V58.74h.32a3.38,3.38,0,0,0,3-1.09c.73-.76.62-2.09.35-4.57-.1-.87-.2-1.85-.27-2.92a6.28,6.28,0,0,1,1.47-4.87,5.82,5.82,0,0,1,4.12-1.69h0v2.49h0A3.3,3.3,0,0,0,79,47a3.91,3.91,0,0,0-.8,3c.06,1,.16,2,.25,2.8.31,2.75.55,4.93-1,6.56A5.66,5.66,0,0,1,73,61.23Z"/><path class="cls-1" d="M56.74,53.06l-8-3,.42-1.11.31-1.26.15,0,8,3Z"/><path class="cls-1" d="M63.06,36l-8-3,.44-1.16V30.54a1.32,1.32,0,0,1,.44.08l8,3Z"/><path class="cls-1" d="M50,60.23a1.25,1.25,0,0,1-.43-.07,1.27,1.27,0,0,1-.79-.92l-1.65-8a1.22,1.22,0,0,1,.05-.68l7.08-19.19h0l1.78-4.81a3.57,3.57,0,0,1,4.62-2.12l3.64,1.36a3.63,3.63,0,0,1,2.11,4.64l-8.85,24a1.23,1.23,0,0,1-.4.55L50.8,60A1.3,1.3,0,0,1,50,60.23Zm-.36-9.16,1.17,5.7,4.53-3.54,8.74-23.67a1.14,1.14,0,0,0-.65-1.45l-3.64-1.36a1,1,0,0,0-.84,0,1.1,1.1,0,0,0-.58.62l-1.77,4.82h0Z"/></g></g></svg>