<svg xmlns="http://www.w3.org/2000/svg" xmlns:xlink="http://www.w3.org/1999/xlink" width="64" height="320" viewBox="0 0 64 320"><svg width="64" height="64" viewBox="0 0 64 64"><circle fill="#EF5350" cx="32" cy="32" r="30"/><path fill="#302424" d="M40.988 49.665c-5.793-4.8-12.219-4.771-17.977 0-.693.573-1.318-.421-.849-1.339 1.755-3.435 5.299-6.492 9.837-6.492s8.081 3.058 9.836 6.492c.472.918-.153 1.912-.847 1.339z"/><path fill="#FFF" d="M10.166 24.935c-1.548 4.728.646 9.975 5.27 12.128 4.615 2.154 10.039.467 12.668-3.746l-6.895-7.721-11.043-.661z"/><path fill="#302424" d="M14.24 25.775a5.825 5.825 0 1 0 10.558 4.924c.862-1.851-9.694-6.775-10.558-4.924z"/><path fill="#302424" d="M10.166 24.936c1.586-1.035 3.474-1.463 5.387-1.455 1.92.018 3.84.469 5.59 1.279 1.744.801 3.346 1.98 4.596 3.441 1.24 1.461 2.162 3.23 2.365 5.115-1.33-1.33-2.605-2.43-3.971-3.387a27.277 27.277 0 0 0-4.25-2.449 27.67 27.67 0 0 0-4.621-1.666c-1.615-.431-3.225-.697-5.096-.878z"/><path fill="#FFF" d="M53.834 24.935c1.547 4.728-.646 9.975-5.27 12.128-4.615 2.154-10.039.467-12.668-3.746l6.895-7.721 11.043-.661z"/><path fill="#302424" d="M49.76 25.775a5.825 5.825 0 1 1-10.558 4.924c-.862-1.851 9.694-6.775 10.558-4.924z"/><path fill="#302424" d="M53.834 24.936c-1.586-1.035-3.473-1.463-5.387-1.455-1.92.018-3.84.469-5.59 1.279-1.744.801-3.346 1.98-4.596 3.441-1.24 1.461-2.162 3.23-2.365 5.115 1.33-1.33 2.605-2.43 3.971-3.387a27.277 27.277 0 0 1 4.25-2.449 27.67 27.67 0 0 1 4.621-1.666c1.616-.431 3.225-.697 5.096-.878z"/></svg><svg width="64" height="64" viewBox="0 0 64 64" y="64"><circle fill="#FFDD67" cx="32" cy="32" r="30"/><path fill="#664E27" d="M49.695 34.436c-.406-.52-1.127-.43-1.912-.43H16.215c-.785 0-1.505-.09-1.912.43C10.393 39.422 14.993 54 31.999 54c17.007 0 21.606-14.578 17.696-19.564z"/><path fill="#4C3526" d="M33.842 41.741c-.578-.014-1.47.526-1.144 1.957.163.723 1.19 1.597 1.19 2.763 0 2.372-3.777 2.372-3.777 0 0-1.166 1.025-2.04 1.19-2.763.326-1.431-.565-1.971-1.145-1.957-1.571.041-4.149 1.736-4.149 4.604 0 3.224 2.684 5.836 5.992 5.836 3.307 0 5.99-2.612 5.99-5.836.001-2.867-2.577-4.563-4.147-4.604z"/><path fill="#FF717F" d="M24.287 50.665c2.229.956 4.8 1.517 7.713 1.517 2.914 0 5.484-.561 7.713-1.517-2.15-1.032-4.711-1.663-7.713-1.663s-5.561.631-7.713 1.663z"/><path fill="#FFF" d="M46.953 36H17.046c-2.053 0-2.053 4-.053 4h30.012c2.001 0 2.001-4-.052-4z"/><circle fill="#664E27" cx="20.5" cy="23" r="5"/><circle fill="#664E27" cx="43.5" cy="23" r="5"/></svg><svg width="64" height="64" viewBox="0 0 64 64" y="128"><path fill="#FFDD67" d="M62 31.999C62 48.568 48.568 62 32.002 62 15.434 62 2 48.568 2 31.999 2 15.432 15.434 2 32.002 2 48.568 2 62 15.432 62 31.999z"/><path fill="#F46767" d="M61.848 13.219c-.463-2.654-2.031-4.889-4.463-5.553-2.654-.727-5.082.316-7.438 2.703-1.32-3.631-3.338-6.326-6.52-7.709-3.259-1.421-6.427-.464-8.425 2.063-2.076 2.629-2.902 6.678-.68 11.975C36.404 21.657 45.734 31.709 46.004 32c.363-.227 10.754-6.721 13.299-9.908 2.49-3.121 3.006-6.228 2.545-8.873zM29.002 4.723c-1.996-2.527-5.166-3.484-8.426-2.063-3.184 1.383-5.201 4.078-6.523 7.709C11.697 7.983 9.27 6.94 6.615 7.667c-2.43.664-4 2.898-4.463 5.553-.459 2.645.057 5.752 2.545 8.873C7.244 25.28 17.637 31.774 18 32c.268-.291 9.6-10.344 11.682-15.303 2.222-5.296 1.396-9.345-.68-11.974z"/><path fill="#664E27" d="M49 38.051c0-.803-.474-1.809-1.822-2.066-3.464-.662-8.582-1.344-15.179-1.344h-.001c-6.595 0-11.714.682-15.177 1.344-1.35.258-1.822 1.264-1.822 2.066 0 7.271 5.611 14.59 16.999 14.59h.001C43.388 52.641 49 45.322 49 38.051z"/><path fill="#FFF" d="M44.69 38.283c-2.195-.367-6.838-1.012-12.69-1.012-5.854 0-10.496.645-12.691 1.012-1.294.219-1.373.744-1.283 1.486.054.443.137.975.265 1.553.142.641.262.936 1.266.816 1.921-.229 22.968-.229 24.888 0 1.004.119 1.123-.176 1.266-.816.127-.578.211-1.109.265-1.553.087-.742.008-1.267-1.286-1.486z"/></svg><svg width="64" height="64" viewBox="0 0 64 64" y="192"><circle fill="#FFDD67" cx="32" cy="32" r="30"/><path d="M53.203 25.727a14.228 14.228 0 0 0-11.691-3.133c-.582.113-1.09-2.021-.387-2.156a16.42 16.42 0 0 1 13.492 3.615c.539.468-.969 2.06-1.414 1.674zm-30.715-3.284c-4.168-.748-8.455.4-11.694 3.133-.443.389-1.951-1.205-1.412-1.674a16.425 16.425 0 0 1 13.493-3.615c.703.135.191 2.27-.387 2.156z" fill="#917524"/><path d="M35.914 32.209c4.213 7.953 12.695 7.951 16.91 0 .207-.4-.34-.58-1.01-1.035-4.225 3.32-11.059 3.014-14.893.002-.667.453-1.214.633-1.007 1.033zm-24.739 0c4.215 7.953 12.698 7.951 16.912 0 .207-.4-.34-.58-1.01-1.035-4.225 3.32-11.059 3.014-14.891.002-.669.453-1.217.633-1.011 1.033zM38.013 50H25.985c-1.313 0-1.313-4 0-4h12.027c1.317 0 1.317 4 .001 4z" fill="#664E27"/></svg><svg width="64" height="64" viewBox="0 0 64 64" y="256"><circle fill="#FFDD67" cx="32" cy="32" r="30"/><circle fill="#FFF" cx="19.5" cy="24.785" r="10"/><circle fill="#664E27" cx="19.5" cy="24.785" r="3.5"/><circle fill="#FFF" cx="44.5" cy="24.785" r="10"/><circle fill="#664E27" cx="44.5" cy="24.785" r="3.5"/><path fill="#664E27" d="M47.676 44c-1.715-3.593-5.881-6-15.676-6-9.793 0-13.959 2.407-15.674 6-.918 1.92.393 5 .393 5 1.637 3.883 1.408 5 15.283 5 13.857 0 13.643-1.117 15.279-5 0 0 1.309-3.08.395-5z"/><path fill="#FFF" d="M43.363 42.965a.792.792 0 0 0-.217-.797S40.601 40 32 40s-11.146 2.168-11.146 2.168a.792.792 0 0 0-.217.797l.195.563c.09.26.389.473.664.473h21.008a.754.754 0 0 0 .664-.473l.195-.563z"/><path d="M50.203 13.455a14.232 14.232 0 0 0-11.693-3.133c-.578.113-1.088-2.021-.385-2.156a16.42 16.42 0 0 1 13.492 3.615c.541.469-.971 2.061-1.414 1.674zm-24.715-3.283c-4.168-.748-8.455.4-11.693 3.133-.443.389-1.953-1.205-1.412-1.674a16.422 16.422 0 0 1 13.492-3.615c.703.134.191 2.269-.387 2.156z" fill="#917524"/></svg></svg>