<?xml version="1.0" encoding="UTF-8"?>
<svg xmlns="http://www.w3.org/2000/svg" xmlns:xlink="http://www.w3.org/1999/xlink" width="1012.5pt" height="487.499991pt" viewBox="0 0 1012.5 487.499991" version="1.2">
<defs>
<clipPath id="clip1">
  <path d="M 0.269531 292.34375 L 195.164062 292.34375 L 195.164062 487 L 0.269531 487 Z M 0.269531 292.34375 "/>
</clipPath>
<clipPath id="clip2">
  <path d="M 0.269531 332 L 195.164062 332 L 195.164062 448 L 0.269531 448 Z M 0.269531 332 "/>
</clipPath>
<clipPath id="clip3">
  <path d="M 195.164062 390.191406 C 195.164062 444.019531 151.546875 487.640625 97.71875 487.640625 C 43.886719 487.640625 0.269531 444.019531 0.269531 390.191406 C 0.269531 336.363281 43.886719 292.742188 97.71875 292.742188 C 151.546875 292.742188 195.164062 336.363281 195.164062 390.191406 Z M 195.164062 390.191406 "/>
</clipPath>
</defs>
<g id="surface1">
<g clip-path="url(#clip1)" clip-rule="nonzero">
<path style=" stroke:none;fill-rule:nonzero;fill:rgb(9.01947%,41.569519%,68.629456%);fill-opacity:1;" d="M 195.164062 390.191406 C 195.164062 444.019531 151.546875 487.640625 97.71875 487.640625 C 43.886719 487.640625 0.269531 444.019531 0.269531 390.191406 C 0.269531 336.363281 43.886719 292.742188 97.71875 292.742188 C 151.546875 292.742188 195.164062 336.363281 195.164062 390.191406 Z M 195.164062 390.191406 "/>
</g>
<g clip-path="url(#clip2)" clip-rule="nonzero">
<g clip-path="url(#clip3)" clip-rule="nonzero">
<path style=" stroke:none;fill-rule:nonzero;fill:rgb(100%,100%,100%);fill-opacity:1;" d="M 264.375 338.75 L 124.234375 338.75 C 122.511719 338.75 121.050781 337.289062 121.050781 335.566406 L 121.050781 335.300781 C 121.050781 333.578125 122.511719 332.121094 124.234375 332.121094 L 264.375 332.121094 C 266.097656 332.121094 267.554688 333.578125 267.554688 335.300781 L 267.554688 335.566406 C 267.554688 337.289062 266.097656 338.75 264.375 338.75 Z M 224.730469 354.921875 L 224.730469 354.660156 C 224.730469 352.933594 223.273438 351.476562 221.550781 351.476562 L 81.410156 351.476562 C 79.6875 351.476562 78.226562 352.933594 78.226562 354.660156 L 78.226562 354.921875 C 78.226562 356.648438 79.6875 358.105469 81.410156 358.105469 L 221.550781 358.105469 C 223.273438 358.105469 224.730469 356.648438 224.730469 354.921875 Z M 284.527344 424.660156 L 284.527344 424.398438 C 284.527344 422.671875 283.066406 421.214844 281.34375 421.214844 L 141.203125 421.214844 C 139.480469 421.214844 138.023438 422.671875 138.023438 424.398438 L 138.023438 424.660156 C 138.023438 426.386719 139.480469 427.84375 141.203125 427.84375 L 281.34375 427.84375 C 283.066406 427.84375 284.527344 426.386719 284.527344 424.660156 Z M 231.359375 444.816406 L 231.359375 444.550781 C 231.359375 442.824219 229.902344 441.367188 228.179688 441.367188 L 88.039062 441.367188 C 86.316406 441.367188 84.855469 442.824219 84.855469 444.550781 L 84.855469 444.816406 C 84.855469 446.539062 86.316406 447.996094 88.039062 447.996094 L 228.179688 447.996094 C 229.902344 447.996094 231.359375 446.539062 231.359375 444.816406 Z M -28.765625 384.222656 L -28.765625 384.488281 C -28.765625 386.214844 -27.308594 387.671875 -25.585938 387.671875 L 114.554688 387.671875 C 116.277344 387.671875 117.738281 386.214844 117.738281 384.488281 L 117.738281 384.222656 C 117.738281 382.5 116.277344 381.042969 114.554688 381.042969 L -25.453125 381.042969 C -27.308594 381.042969 -28.765625 382.5 -28.765625 384.222656 Z M -88.828125 403.980469 L -88.828125 404.246094 C -88.828125 405.96875 -87.367188 407.425781 -85.644531 407.425781 L 54.496094 407.425781 C 56.21875 407.425781 57.675781 405.96875 57.675781 404.246094 L 57.675781 403.980469 C 57.675781 402.253906 56.21875 400.796875 54.496094 400.796875 L -85.644531 400.796875 C -87.5 400.664062 -88.828125 402.121094 -88.828125 403.980469 Z M -88.828125 403.980469 "/>
</g>
</g>
</g>
</svg>
